<?xml version="1.0" encoding="utf-8"?>
<!-- Generator: Adobe Illustrator 23.0.3, SVG Export Plug-In . SVG Version: 6.00 Build 0)  -->
<svg version="1.1" id="图层_1" xmlns="http://www.w3.org/2000/svg" xmlns:xlink="http://www.w3.org/1999/xlink" x="0px" y="0px"
	 viewBox="0 0 64 64" style="enable-background:new 0 0 64 64;" xml:space="preserve">
<style type="text/css">
	.st0{display:none;}
	.st1{display:inline;fill:#262626;}
	.st2{fill:#1AAD19;}
	.st3{fill:#FFFFFF;}
</style>
<g class="st0">
	<path class="st1" d="M49.2,59.4H14.8c-4.6,0-8-3.6-8-8V12.6c0-4.4,3.6-8,8-8h34c4.6,0,8,3.6,8,8v38.6
		C57.2,55.8,53.5,59.4,49.2,59.4z M14.8,8c-2.5,0-4.6,2-4.6,4.6v38.6c0,2.5,2,4.6,4.6,4.6h34c2.5,0,4.6-2,4.6-4.6V12.6
		c0-2.5-2-4.6-4.6-4.6H14.8z"/>
	<path class="st1" d="M24.7,25.2h5.7c0.9,0,1.8,0.7,1.8,1.8c0,0.9-0.7,1.8-1.8,1.8h-5.7c-0.9,0-1.8-0.7-1.8-1.8S23.6,25.2,24.7,25.2
		z M24.7,36.6h14.8c0.9,0,1.8,0.7,1.8,1.8c0,0.9-0.7,1.8-1.8,1.8H24.7c-0.9,0-1.8-0.7-1.8-1.8S23.6,36.6,24.7,36.6z"/>
</g>
<g>
	<path class="st2" d="M49.2,59.5H14.9c-4.6,0-8-3.6-8-8V12.6c0-4.4,3.6-8,8-8h34c4.6,0,8,3.6,8,8v38.6
		C57.2,55.8,53.5,59.5,49.2,59.5z"/>
	<path class="st3" d="M24.7,25.2h5.7c0.9,0,1.8,0.7,1.8,1.8c0,0.9-0.7,1.8-1.8,1.8h-5.7c-0.9,0-1.8-0.7-1.8-1.8S23.6,25.2,24.7,25.2
		z M24.7,36.6h14.8c0.9,0,1.8,0.7,1.8,1.8c0,0.9-0.7,1.8-1.8,1.8H24.7c-0.9,0-1.8-0.7-1.8-1.8S23.6,36.6,24.7,36.6z"/>
</g>
</svg>
