<?xml version="1.0" standalone="no"?><!DOCTYPE svg PUBLIC "-//W3C//DTD SVG 1.1//EN" "http://www.w3.org/Graphics/SVG/1.1/DTD/svg11.dtd"><svg t="1560395788200" class="icon" style="" viewBox="0 0 1024 1024" version="1.1" xmlns="http://www.w3.org/2000/svg" p-id="23458" xmlns:xlink="http://www.w3.org/1999/xlink" width="64" height="64"><defs><style type="text/css"></style></defs><path d="M847.86956 64.138786H176.1243c-61.809741 0-111.980397 50.170656-111.980398 111.974257v671.773914c0 61.859883 50.170656 111.974257 111.980398 111.974257h671.746284c61.820997 0 111.985514-50.114374 111.985514-111.974257V176.113043c0-61.742203-50.115398-111.974257-111.986538-111.974257zM512.053212 831.92645c-27.822672 0-70.771857-23.38357-70.771857-51.212382 0-27.704992 42.949184-49.409316 70.771857-49.409317 27.77253 0 70.665433 21.704324 70.665433 49.409317 0 27.828812-42.892903 51.212382-70.665433 51.212382z m50.220798-220.243123c0 27.767414-22.448268 50.333362-50.220798 50.333362-27.822672 0-50.327222-22.565948-50.327222-50.333362l-20.444635-323.613422c0-27.828812 42.949184-51.194986 70.771857-51.194986 27.77253 0 70.665433 23.367197 70.665433 51.194986l-20.444635 323.613422z" fill="#E65C65" p-id="23459"></path></svg>