<?xml version="1.0" encoding="utf-8"?>
<!-- Generator: Adobe Illustrator 23.0.3, SVG Export Plug-In . SVG Version: 6.00 Build 0)  -->
<svg version="1.2" baseProfile="tiny" id="图层_1"
	 xmlns="http://www.w3.org/2000/svg" xmlns:xlink="http://www.w3.org/1999/xlink" x="0px" y="0px" viewBox="0 0 64 64"
	 xml:space="preserve">
<g display="none">
	<path display="inline" d="M60,60H44.4V4H60V60z M47.5,56.9h9.3V7.1h-9.3V56.9z M39.8,60H24.2V18h15.6C39.8,18,39.8,60,39.8,60z
		 M27.3,56.9h9.3V21.1h-9.3V56.9z M19.6,60H4V32h15.6V60z M7.1,56.9h9.3V35.1H7.1V56.9z"/>
</g>
<g>
	<path fill="#1AAD19" d="M60,60H44.4V4H60V60z M39.8,60H24.2V18h15.6C39.8,18,39.8,60,39.8,60z M19.6,60H4V32h15.6V60z"/>
</g>
</svg>
