<?xml version="1.0" encoding="utf-8"?>
<!-- Generator: Adobe Illustrator 23.0.3, SVG Export Plug-In . SVG Version: 6.00 Build 0)  -->
<svg version="1.1" id="图层_1" xmlns="http://www.w3.org/2000/svg" xmlns:xlink="http://www.w3.org/1999/xlink" x="0px" y="0px"
	 viewBox="0 0 200 200" style="enable-background:new 0 0 200 200;" xml:space="preserve">
<style type="text/css">
	.st0{fill:#7ACFA6;}
</style>
<path class="st0" d="M199.4,88c-0.8-11.6-2.7-22.9-6.6-33.9c-4.4-12.2-11-22.9-20.7-31.6c-7.9-7.1-17-12.1-26.9-15.6
	c-8.6-3.1-17.6-4.9-26.7-5.8c-3.9-0.4-7.7-0.6-11.6-0.8c-0.4,0-0.7-0.1-1.1-0.1H94c-2,0.1-3.9,0.3-5.9,0.4C78,1.2,68,2.7,58.2,5.7
	c-10.1,3.1-19.5,7.7-27.7,14.4C19.3,29.2,11.8,40.7,7,54.1C3.9,62.9,2,72,1,81.3c-1,9.2-1.2,18.4-0.8,27.5
	c0.7,13.9,2.9,27.5,8.1,40.4c8.7,21.6,24.3,36,46.1,43.7c9.3,3.3,18.9,5.1,28.7,6.1c10.6,1,21.2,1.1,31.9,0.2
	c13.5-1.1,26.5-3.9,38.8-9.7c19.4-9.1,32.1-24.1,39.2-44.2c3.1-8.6,4.9-17.6,5.8-26.7c0.4-3.8,0.6-7.6,0.9-11.4c0-0.3,0.1-0.7,0.2-1
	V93.9C199.7,91.9,199.5,90,199.4,88z M139.3,104.9c-4.4,7.4-9.2,14.6-13.9,21.8c-7.4,11.5-14.8,22.9-22.3,34.4
	c-2.3,3.5-4.1,3.5-6.4-0.1c-11.6-18-23.4-35.8-34.9-53.8c-18.2-28.9-1-64.1,30-69.7c2.7-0.5,5.4-0.6,8.1-0.9
	c22.3,0.3,41.3,16.4,44.8,38.4C146.5,85.6,144.8,95.7,139.3,104.9z M123.8,83.9c-0.8,12.6-11.3,22.3-23.9,22.3
	c-12.4,0-22.8-9.5-23.8-21.7C75,72,83.6,60.7,95.8,58.7c8.8-1.4,16.3,1.4,22.3,8.1c1.3,1.5,1.1,3.7-0.3,5c-1.5,1.3-3.7,1.2-5.2-0.4
	c-2.4-2.7-5.4-4.6-8.9-5.4c-9.1-2.2-18.3,3.7-20.2,13c-1.9,9.2,4.3,18.3,13.6,19.9c9.7,1.6,18.6-5.3,19.5-15.1
	c0.1-1.6,0.8-2.9,2.3-3.5c1.3-0.5,2.6-0.3,3.7,0.6C123.5,81.6,123.9,82.6,123.8,83.9z"/>
</svg>
