<?xml version="1.0" encoding="utf-8"?>
<!-- Generator: Adobe Illustrator 23.0.3, SVG Export Plug-In . SVG Version: 6.00 Build 0)  -->
<svg version="1.2" baseProfile="tiny" xmlns="http://www.w3.org/2000/svg" xmlns:xlink="http://www.w3.org/1999/xlink" x="0px"
	 y="0px" viewBox="0 0 64 64" xml:space="preserve">
<g id="图层_1" display="none">
	<path display="inline" d="M55.2,60.8H9.3c-4.2,0-7.7-3.3-7.7-7.4V21.6c0-0.4,0.1-0.8,0.4-1.2l8.7-14.7c1.4-2.3,3.9-3.7,6.6-3.7
		h29.8c2.7,0,5.3,1.4,6.6,3.7l8.7,14.7c0.2,0.4,0.4,0.8,0.4,1.2v31.9C62.9,57.5,59.5,60.8,55.2,60.8z M4.8,21.9v33.7
		c0,1.2,0.9,2.1,2.1,2.1h0.6h50.2c1.1,0,2-0.9,2-2v-0.7v-33H4.8z M7,18.6h50.5l-7-12.3C50.1,5.5,49.1,5,48.2,5H16.4
		c-1,0-1.9,0.5-2.4,1.4C14,6.3,7,18.6,7,18.6z M42.2,40H20.7c-1.2,0-2.1-1-2.1-2.1c0-1.2,1-2.1,2.1-2.1h21.5c1.2,0,2.1,1,2.1,2.1
		C44.3,39.1,43.4,40,42.2,40z"/>
</g>
<g id="图层_2">
	<path display="none" d="M42.2,35.7H20.7c-1.2,0-2.1,1-2.1,2.1c0,1.2,1,2.1,2.1,2.1h21.5c1.2,0,2.1-1,2.1-2.1
		C44.3,36.7,43.4,35.7,42.2,35.7z M26,38c2,0,5,0,7,0C31,38,28,38,26,38z"/>
	<path fill="#1AAD19" d="M62.5,20.4L53.8,5.6c-1.4-2.3-3.9-3.7-6.6-3.7H17.4c-2.7,0-5.3,1.4-6.6,3.7L2,20.4
		c-0.2,0.4-0.4,0.8-0.4,1.2v31.9c0,4.1,3.4,7.4,7.7,7.4h45.9c4.2,0,7.7-3.3,7.7-7.4V21.6C62.9,21.1,62.8,20.7,62.5,20.4z M42.2,40
		H20.7c-1.2,0-2.1-1-2.1-2.1c0-1.2,1-2.1,2.1-2.1h21.5c1.2,0,2.1,1,2.1,2.1C44.3,39.1,43.4,40,42.2,40z"/>
</g>
</svg>
