<?xml version="1.0" encoding="utf-8"?>
<!-- Generator: Adobe Illustrator 23.0.3, SVG Export Plug-In . SVG Version: 6.00 Build 0)  -->
<svg version="1.2" baseProfile="tiny" xmlns="http://www.w3.org/2000/svg" xmlns:xlink="http://www.w3.org/1999/xlink" x="0px"
	 y="0px" viewBox="0 0 64 64" xml:space="preserve">
<g id="图层_1">
	<path d="M55.2,60.8H9.3c-4.2,0-7.7-3.3-7.7-7.4V21.6c0-0.4,0.1-0.8,0.4-1.2l8.7-14.7c1.4-2.3,3.9-3.7,6.6-3.7h29.8
		c2.7,0,5.3,1.4,6.6,3.7l8.7,14.7c0.2,0.4,0.4,0.8,0.4,1.2v31.9C62.9,57.5,59.5,60.8,55.2,60.8z M4.8,21.9v33.7
		c0,1.2,0.9,2.1,2.1,2.1h0.6h50.2c1.1,0,2-0.9,2-2v-0.7v-33H4.8z M7,18.6h50.5l-7-12.3C50.1,5.5,49.1,5,48.2,5H16.4
		c-1,0-1.9,0.5-2.4,1.4C14,6.3,7,18.6,7,18.6z M42.2,40H20.7c-1.2,0-2.1-1-2.1-2.1c0-1.2,1-2.1,2.1-2.1h21.5c1.2,0,2.1,1,2.1,2.1
		C44.3,39.1,43.4,40,42.2,40z"/>
</g>
<g id="图层_2">
	<path display="none" fill="#1AAD19" d="M61.7,20.8l-8.6-15C51.8,3.4,49.4,2,46.7,2H17.4c-2.7,0-5.2,1.4-6.5,3.8l-8.6,15
		C2.1,21.1,2,21.6,2,22v32.6c0,4.2,3.4,7.5,7.5,7.5h45.1c4.2,0,7.5-3.4,7.5-7.5V22C62.1,21.6,62,21.1,61.7,20.8z M44.6,38.3h-6.2
		h-3.7h-8.9h-3.5h-2.7c-1.4,0-2.5-1.1-2.5-2.5c0-1.4,1.1-2.5,2.5-2.5h25.1c1.4,0,2.5,1.1,2.5,2.5C47.1,37.2,45.9,38.3,44.6,38.3z"/>
	<path display="none" d="M44.6,33.3H19.5c-1.4,0-2.5,1.1-2.5,2.5c0,1.4,1.1,2.5,2.5,2.5h2.7h3.5h8.9h3.7h6.2c1.4,0,2.5-1.1,2.5-2.5
		C47.1,34.4,45.9,33.3,44.6,33.3z M22,34c2,0,4,0,6,0C26,34,24,34,22,34z"/>
</g>
</svg>
