<?xml version="1.0" encoding="utf-8"?>
<!-- Generator: Adobe Illustrator 23.0.3, SVG Export Plug-In . SVG Version: 6.00 Build 0)  -->
<svg version="1.1" id="图层_1" xmlns="http://www.w3.org/2000/svg" xmlns:xlink="http://www.w3.org/1999/xlink" x="0px" y="0px"
	 viewBox="0 0 64 64" style="enable-background:new 0 0 64 64;" xml:space="preserve">
<style type="text/css">
	.st0{fill:#231815;}
	.st1{fill:#515151;}
</style>
<g>
	<path class="st0" d="M60.2,56.2c-1.7-8.6-6.8-15.9-14.2-20.1c-0.8-0.4-1.2-0.7-2.6-1.3c-4.6-1.9-9.3-2.4-13.6-2.4
		c-12.8,1-23.4,10.8-26,23.8c-0.3,1,0,2,0.6,2.9c0.6,0.8,1.7,1.3,2.7,1.3h49.5c1,0,2-0.5,2.7-1.3C60.2,58.2,60.4,57.2,60.2,56.2z
		 M56.6,57.6c-0.2,0-0.4-0.1-0.6-0.1c-0.1,0-0.1,0-0.2,0c-0.1,0-0.3,0-0.4-0.1c-0.1,0.1-0.3,0.1-0.5,0.1s-0.4-0.1-0.6-0.1
		c-0.2,0.1-0.4,0.2-0.6,0.1c-0.1,0-0.1,0-0.2,0c-0.2,0.1-0.5,0.1-0.9,0.1l0,0h-0.1h-0.1c-0.2,0.1-0.4,0.1-0.7,0.1h-0.1
		c-0.2,0-0.5-0.1-0.7-0.2c-0.1,0-0.2,0-0.3,0s-0.1,0-0.2,0c-0.6,0.1-1.2,0.2-1.9,0.1c-0.1,0-0.2,0-0.4,0l0,0c-0.3,0-0.7,0-1-0.1
		c-0.5,0.1-1.1,0-1.6-0.1c-0.1,0-0.1,0-0.2,0h-0.2c-0.2,0-0.4,0-0.6-0.1c-0.3,0.1-0.7,0.1-1,0.1c0,0,0,0-0.1,0
		c-0.3,0-0.6,0.1-0.9,0.1h-0.2c-0.1,0-0.2,0-0.3,0c-0.2,0-0.5,0-0.7,0c-0.5,0-1.1-0.1-1.6-0.2c-0.3,0.1-0.6,0.2-0.8,0.2
		c-0.3,0-0.5-0.1-0.6-0.2c-0.2,0.1-0.5,0.2-0.7,0.2s-0.3,0-0.5-0.1c-0.2,0.1-0.5,0.2-0.7,0.2c-0.3,0-0.5-0.1-0.6-0.2
		c-0.2,0.1-0.4,0.1-0.5,0.1s-0.3,0-0.4-0.1c-0.2,0.1-0.4,0.1-0.6,0.1c-0.3,0-0.5-0.1-0.6-0.2c-0.4,0.1-0.8,0.1-1.1,0.1
		c-0.6,0-1.1-0.1-1.5-0.2c-0.5,0.2-1,0.3-1.6,0.3c-0.5,0-1.1-0.1-1.6-0.2c-0.5,0.2-1,0.2-1.6,0.2c-0.5,0-1-0.1-1.4-0.2
		c-0.3,0.1-0.5,0.2-0.8,0.2c-0.2,0-0.3,0-0.5-0.1c-0.2,0-0.3,0.1-0.5,0.1s-0.3,0-0.5-0.1c-0.1,0-0.2,0-0.2,0c-0.1,0-0.2,0-0.3,0l0,0
		c-0.2,0-0.4,0-0.5,0c-0.3,0.1-0.6,0.2-0.8,0.2c-0.2,0-0.4-0.1-0.5-0.1c-0.2,0-0.5,0-0.7,0c-0.1,0-0.2,0-0.3,0
		c-0.2,0.1-0.4,0.1-0.5,0.1c-0.3,0-0.5-0.1-0.6-0.2c-0.3,0.1-0.6,0.2-0.9,0.2s-0.4-0.1-0.6-0.2c-0.2,0.1-0.4,0.1-0.5,0.1
		c-0.3,0-0.5-0.1-0.6-0.2c-0.2,0.1-0.4,0.1-0.5,0.1c-0.3,0-0.4-0.1-0.5-0.1c-0.8,0.2-1.6,0.2-2.3,0c-0.3,0.1-0.6,0.2-0.9,0.2
		c-0.3,0-0.5-0.1-0.6-0.2c-0.2,0.1-0.4,0.1-0.5,0.1s-0.3,0-0.4-0.1c-0.1,0-0.3,0.1-0.4,0.1c-0.2,0-0.3,0-0.4-0.1
		c-0.1,0-0.3,0.1-0.4,0.1c-0.2,0-0.3,0-0.5-0.1c-0.2,0.1-0.5,0.2-0.7,0.2c-0.7,0-0.9-0.4-0.6-0.9c0-0.1,0-0.2,0-0.4
		c-0.1-0.2,0-0.5,0.2-0.9c-0.2-0.3,0-0.8,0.4-1.3c0-0.2,0-0.3,0.1-0.5c0-0.3,0.2-0.7,0.5-1.1c0-0.1,0-0.2,0-0.4c0,0,0,0,0-0.1
		c0.1-0.2,0.1-0.3,0.2-0.5c0-0.1,0.1-0.1,0.1-0.2c0-0.1,0.1-0.2,0.2-0.3c-0.4,0-0.1-0.5,0.4-0.9c0.2-0.6,0.4-1.1,0.8-1.6
		c0.1-0.4,0.3-0.7,0.6-1c0.2-0.5,0.6-1,1-1.4c0.1-0.2,0.2-0.4,0.3-0.6c0.3-0.5,0.6-0.9,1-1.3l0.1-0.1l0.1-0.1c0.3-0.6,0.7-1,1.2-1.4
		c0.2-0.2,0.3-0.4,0.5-0.5c0.3-0.4,0.7-0.7,1.1-0.9c0.2-0.3,0.5-0.5,0.8-0.7c0.4-0.5,0.9-0.8,1.5-1.1c0.5-0.5,1.1-0.9,1.7-1.1
		c0.2-0.2,0.5-0.3,0.8-0.4c0.4-0.2,0.7-0.4,1.1-0.6c0.3-0.2,0.6-0.3,0.9-0.4c0.6-0.4,1.2-0.6,1.9-0.7c0.4-0.2,0.8-0.3,1.3-0.3
		c0.5-0.2,1.1-0.3,1.7-0.3c0.5-0.2,1.1-0.3,1.6-0.3c0.5-0.1,1.1-0.1,1.6-0.1c0.3,0,0.5-0.1,0.8-0.1c0.2,0,0.4,0,0.6,0l0,0
		c0.2,0,0.5,0,0.7,0c0.1,0,0.2,0,0.3,0c0.5,0,0.9,0.1,1.3,0.2c0.4,0,0.7,0.1,1.1,0.1c0.6,0,1.1,0.1,1.6,0.3c0.6,0,1.1,0.2,1.5,0.4
		c0.5,0.1,0.9,0.2,1.2,0.4c0.7,0.1,1.3,0.3,1.9,0.7c0.5,0.1,1,0.4,1.5,0.7c0.4,0.1,0.7,0.3,1,0.5L44,38.2l0.1,0.1
		c0.2,0.1,0.4,0.3,0.6,0.5h0.1c0.9,0.3,1.5,0.8,2,1.4c0.3,0.2,0.5,0.4,0.8,0.6l0,0c0,0,0,0,0.1,0c0.4,0.2,0.7,0.4,1.3,0.9
		c0.3,0.2,0.5,0.5,0.7,0.9c0.1,0.1,0.1,0.1,0.2,0.2c0.5,0.3,0.9,0.8,1.2,1.2c0.4,0.4,0.7,0.8,1,1.2c0.6,0.5,1,1.2,1.2,2
		c0.3,0.3,0.5,0.7,0.7,1.1c0.2,0.2,0.3,0.4,0.5,0.7c0.3,0.5,0.4,0.9,0.5,1.4l0,0c0.2,0.3,0.4,0.6,0.5,1c0.3,0.5,0.5,1,0.6,1.6
		c0.4,0.6,0.6,1.1,0.5,1.5c0,0.1,0.1,0.3,0.1,0.4c0.1,0.3,0.2,0.6,0.2,0.9C57.6,56.9,57.6,57.6,56.6,57.6L56.6,57.6z"/>
	<path class="st1" d="M58.2,56.6C56.7,48.8,52,42.2,45,38c-2.7-1.7-8.2-3.5-13.9-3.5h-1c-11.9,0.9-21.9,10-24.2,22.1
		c-0.1,0.3,0,0.9,0.3,1.2c0,0,0,0.1,0.1,0.1c0.2,0.3,0.6,0.4,1,0.4h49.6c0.4,0,0.8-0.2,1-0.4C58.1,57.5,58.2,57.1,58.2,56.6z
		 M56.6,57.6c-0.2,0-0.4-0.1-0.6-0.1c-0.1,0-0.1,0-0.2,0c-0.1,0-0.3,0-0.4-0.1c-0.1,0.1-0.3,0.1-0.5,0.1s-0.4-0.1-0.6-0.1
		c-0.2,0.1-0.4,0.2-0.6,0.1c-0.1,0-0.1,0-0.2,0c-0.2,0.1-0.5,0.1-0.9,0.1l0,0h-0.1h-0.1c-0.2,0.1-0.4,0.1-0.7,0.1h-0.1
		c-0.2,0-0.5-0.1-0.7-0.2c-0.1,0-0.2,0-0.3,0s-0.1,0-0.2,0c-0.6,0.1-1.2,0.2-1.9,0.1c-0.1,0-0.2,0-0.4,0l0,0c-0.3,0-0.7,0-1-0.1
		c-0.5,0.1-1.1,0-1.6-0.1c-0.1,0-0.1,0-0.2,0h-0.2c-0.2,0-0.4,0-0.6-0.1c-0.3,0.1-0.7,0.1-1,0.1c0,0,0,0-0.1,0
		c-0.3,0-0.6,0.1-0.9,0.1h-0.2c-0.1,0-0.2,0-0.3,0c-0.2,0-0.5,0-0.7,0c-0.5,0-1.1-0.1-1.6-0.2c-0.3,0.1-0.6,0.2-0.8,0.2
		c-0.3,0-0.5-0.1-0.6-0.2c-0.2,0.1-0.5,0.2-0.7,0.2s-0.3,0-0.5-0.1c-0.2,0.1-0.5,0.2-0.7,0.2c-0.3,0-0.5-0.1-0.6-0.2
		c-0.2,0.1-0.4,0.1-0.5,0.1s-0.3,0-0.4-0.1c-0.2,0.1-0.4,0.1-0.6,0.1c-0.3,0-0.5-0.1-0.6-0.2c-0.4,0.1-0.8,0.1-1.1,0.1
		c-0.6,0-1.1-0.1-1.5-0.2c-0.5,0.2-1,0.3-1.6,0.3c-0.5,0-1.1-0.1-1.6-0.2c-0.5,0.2-1,0.2-1.6,0.2c-0.5,0-1-0.1-1.4-0.2
		c-0.3,0.1-0.5,0.2-0.8,0.2c-0.2,0-0.3,0-0.5-0.1c-0.2,0-0.3,0.1-0.5,0.1s-0.3,0-0.5-0.1c-0.1,0-0.2,0-0.2,0c-0.1,0-0.2,0-0.3,0l0,0
		c-0.2,0-0.4,0-0.5,0c-0.3,0.1-0.6,0.2-0.8,0.2c-0.2,0-0.4-0.1-0.5-0.1c-0.2,0-0.5,0-0.7,0c-0.1,0-0.2,0-0.3,0
		c-0.2,0.1-0.4,0.1-0.5,0.1c-0.3,0-0.5-0.1-0.6-0.2c-0.3,0.1-0.6,0.2-0.9,0.2s-0.4-0.1-0.6-0.2c-0.2,0.1-0.4,0.1-0.5,0.1
		c-0.3,0-0.5-0.1-0.6-0.2c-0.2,0.1-0.4,0.1-0.5,0.1c-0.3,0-0.4-0.1-0.5-0.1c-0.8,0.2-1.6,0.2-2.3,0c-0.3,0.1-0.6,0.2-0.9,0.2
		c-0.3,0-0.5-0.1-0.6-0.2c-0.2,0.1-0.4,0.1-0.5,0.1s-0.3,0-0.4-0.1c-0.1,0-0.3,0.1-0.4,0.1c-0.2,0-0.3,0-0.4-0.1
		c-0.1,0-0.3,0.1-0.4,0.1c-0.2,0-0.3,0-0.5-0.1c-0.2,0.1-0.5,0.2-0.7,0.2c-0.7,0-0.9-0.4-0.6-0.9c0-0.1,0-0.2,0-0.4
		c-0.1-0.2,0-0.5,0.2-0.9c-0.2-0.3,0-0.8,0.4-1.3c0-0.2,0-0.3,0.1-0.5c0-0.3,0.2-0.7,0.5-1.1c0-0.1,0-0.2,0-0.4c0,0,0,0,0-0.1
		c0.1-0.2,0.1-0.3,0.2-0.5c0-0.1,0.1-0.1,0.1-0.2c0-0.1,0.1-0.2,0.2-0.3c-0.4,0-0.1-0.5,0.4-0.9c0.2-0.6,0.4-1.1,0.8-1.6
		c0.1-0.4,0.3-0.7,0.6-1c0.2-0.5,0.6-1,1-1.4c0.1-0.2,0.2-0.4,0.3-0.6c0.3-0.5,0.6-0.9,1-1.3l0.1-0.1l0.1-0.1c0.3-0.6,0.7-1,1.2-1.4
		c0.2-0.2,0.3-0.4,0.5-0.5c0.3-0.4,0.7-0.7,1.1-0.9c0.2-0.3,0.5-0.5,0.8-0.7c0.4-0.5,0.9-0.8,1.5-1.1c0.5-0.5,1.1-0.9,1.7-1.1
		c0.2-0.2,0.5-0.3,0.8-0.4c0.4-0.2,0.7-0.4,1.1-0.6c0.3-0.2,0.6-0.3,0.9-0.4c0.6-0.4,1.2-0.6,1.9-0.7c0.4-0.2,0.8-0.3,1.3-0.3
		c0.5-0.2,1.1-0.3,1.7-0.3c0.5-0.2,1.1-0.3,1.6-0.3c0.5-0.1,1.1-0.1,1.6-0.1c0.3,0,0.5-0.1,0.8-0.1c0.2,0,0.4,0,0.6,0l0,0
		c0.2,0,0.5,0,0.7,0c0.1,0,0.2,0,0.3,0c0.5,0,0.9,0.1,1.3,0.2c0.4,0,0.7,0.1,1.1,0.1c0.6,0,1.1,0.1,1.6,0.3c0.6,0,1.1,0.2,1.5,0.4
		c0.5,0.1,0.9,0.2,1.2,0.4c0.7,0.1,1.3,0.3,1.9,0.7c0.5,0.1,1,0.4,1.5,0.7c0.4,0.1,0.7,0.3,1,0.5L44,38.2l0.1,0.1
		c0.2,0.1,0.4,0.3,0.6,0.5h0.1c0.9,0.3,1.5,0.8,2,1.4c0.3,0.2,0.5,0.4,0.8,0.6l0,0c0,0,0,0,0.1,0c0.4,0.2,0.7,0.4,1.3,0.9
		c0.3,0.2,0.5,0.5,0.7,0.9c0.1,0.1,0.1,0.1,0.2,0.2c0.5,0.3,0.9,0.8,1.2,1.2c0.4,0.4,0.7,0.8,1,1.2c0.6,0.5,1,1.2,1.2,2
		c0.3,0.3,0.5,0.7,0.7,1.1c0.2,0.2,0.3,0.4,0.5,0.7c0.3,0.5,0.4,0.9,0.5,1.4l0,0c0.2,0.3,0.4,0.6,0.5,1c0.3,0.5,0.5,1,0.6,1.6
		c0.4,0.6,0.6,1.1,0.5,1.5c0,0.1,0.1,0.3,0.1,0.4c0.1,0.3,0.2,0.6,0.2,0.9C57.6,56.9,57.6,57.6,56.6,57.6L56.6,57.6z"/>
	<path class="st0" d="M32,4.1c-8.1,0-14.7,6.7-14.7,14.7S23.9,33.5,32,33.5s14.7-6.7,14.7-14.7S40.1,4.1,32,4.1z M43.7,19.8
		c0,0.5-0.1,1.1-0.2,1.6C43.4,22,43.3,22.5,43,23c-0.1,0.4-0.3,0.8-0.5,1.2c-0.3,0.7-0.7,1.3-1.3,1.8c-0.2,0.4-0.5,0.7-0.8,1
		c-0.4,0.7-1.1,1.2-1.8,1.5c-0.4,0.4-0.9,0.7-1.5,0.9c-0.6,0.4-1.2,0.7-1.9,0.8c-0.3,0.1-0.7,0.2-1.1,0.2c-0.5,0.1-1,0.2-1.5,0.2
		c-0.1,0-0.1,0-0.2,0c-0.1,0-0.2,0-0.3,0c-0.2,0-0.3,0-0.5,0c-0.1,0-0.2,0-0.3,0c-0.6,0-1.1-0.1-1.6-0.2c-1.2,0-2.1-0.4-2.9-1
		c-0.8-0.2-1.5-0.7-2-1.3c-0.8-0.4-1.5-1-1.9-1.8c-0.3-0.3-0.5-0.6-0.7-1c-0.4-0.4-0.7-1-0.9-1.5C21.2,23.3,21,23,21,22.5
		c-0.3-0.6-0.5-1.2-0.5-1.8c-0.2-0.8-0.3-1.6-0.2-2.5c0-0.7,0.1-1.4,0.3-2.1c0.1-0.2,0.1-0.5,0.2-0.7c0.1-0.5,0.3-1.1,0.5-1.5
		c0.2-0.7,0.6-1.4,1.2-1.9c0.3-0.6,0.7-1.2,1.3-1.6c0.3-0.3,0.6-0.6,0.9-0.8c0.5-0.5,1.1-0.9,1.7-1.1c0.2-0.1,0.4-0.2,0.6-0.3
		c0.6-0.4,1.4-0.7,2.3-0.8c0.4-0.1,0.8-0.2,1.2-0.3c1-0.3,2.2-0.3,3.2,0l0,0c0.8,0,1.6,0.2,2.4,0.6C37.2,7.9,38,8.4,38.6,9
		c0.7,0.3,1.3,0.7,1.7,1.3c0.6,0.5,1.1,1.1,1.4,1.8c0.1,0.1,0.2,0.3,0.3,0.5c0.7,0.7,1.1,1.7,1.3,2.6c0.1,0.2,0.2,0.5,0.2,0.7
		c0.3,0.8,0.4,1.7,0.3,2.6c0,0.3,0,0.7,0,1C43.7,19.7,43.7,19.7,43.7,19.8z M59,56.4c-1.5-8.2-6.4-14.9-13.6-19.2
		c-2.7-1.7-8.3-3.6-14.4-3.6c-0.3,0-0.7,0-1,0C17.7,34.5,7.5,43.8,5,56.4c-0.1,0.6,0,1.4,0.5,1.9c0.4,0.5,1,0.8,1.7,0.8h49.5
		c0.6,0,1.3-0.3,1.7-0.8C58.8,57.9,59.1,57.2,59,56.4z M56.6,57.6c-0.1,0-0.3,0-0.4-0.1h-2.9c-0.2,0.1-0.4,0-0.7,0l0,0h-0.1l0,0
		h-0.2c-0.2,0.1-0.4,0.1-0.6,0.1h-0.1c-0.1,0-0.2,0-0.4-0.1h-1.4c-0.2,0-0.4,0-0.6,0c-0.2,0-0.4,0-0.6,0c-0.1,0-0.2,0-0.4,0l0,0
		c-0.1,0-0.2,0-0.4,0h-30c-0.1,0-0.3,0.1-0.4,0.1c-0.2,0-0.3,0-0.4-0.1h-5.1c-0.1,0-0.3,0.1-0.4,0.1c-0.2,0-0.3,0-0.4-0.1H7.8
		c-0.1,0-0.3,0.1-0.4,0.1c-0.4,0-0.6-0.1-0.7-0.3c0,0,0-0.1-0.1-0.1c-0.1-0.1-0.1-0.3-0.1-0.5s0.1-0.4,0.1-0.7c0-0.1,0-0.2,0.1-0.3
		c0-0.2,0.1-0.3,0.1-0.5c-0.1-0.2,0-0.5,0.3-0.9C7.4,53.2,7.8,52,8.3,51c0-0.1,0.1-0.2,0.1-0.3c1.2-2.6,2.8-5,4.7-7.2
		c0.2-0.2,0.4-0.4,0.6-0.6c0.9-0.9,1.8-1.7,2.8-2.5c0.3-0.3,0.6-0.5,0.9-0.7s0.5-0.4,0.8-0.6c0.3-0.3,0.7-0.5,1.1-0.6
		c1.1-0.6,2.2-1.2,3.3-1.6c0.5-0.3,1-0.5,1.6-0.6c0.1,0,0.3-0.1,0.4-0.2c1.8-0.5,3.6-0.9,5.4-1c0.3,0,0.6,0,0.9,0
		c1.9,0,3.7,0.2,5.4,0.5c0.1,0,0.2,0,0.3,0c0.2,0,0.5,0.1,0.7,0.2c0.4,0,0.8,0.1,1.1,0.3c2.5,0.6,4.6,1.5,6,2.4l0,0
		c0.5,0.3,0.9,0.6,1.3,0.9c0.2,0.1,0.5,0.3,0.7,0.5c0.9,0.6,1.7,1.3,2.5,2L49,42c0.1,0.1,0.2,0.2,0.4,0.3c1.2,1.2,2.3,2.5,3.3,3.8
		c0.1,0.1,0.1,0.2,0.2,0.3c1.3,1.8,2.3,3.8,3.1,5.8v0.1c0.1,0.4,0.3,0.8,0.4,1.1c0.2,0.4,0.4,0.8,0.3,1.2c0,0.1,0.1,0.2,0.1,0.3
		l0.1,0.2c0.1,0.2,0.1,0.4,0.1,0.6c0,0.1,0.1,0.3,0.1,0.4C57.6,57,57.5,57.6,56.6,57.6z"/>
	<path class="st1" d="M32,6.2c-7,0-12.6,5.7-12.6,12.6S25,31.5,32,31.5s12.6-5.7,12.6-12.6S39,6.2,32,6.2z M43.7,19.8
		c0,0.5-0.1,1.1-0.2,1.6C43.4,22,43.3,22.5,43,23c-0.1,0.4-0.3,0.8-0.5,1.2c-0.3,0.7-0.7,1.3-1.3,1.8c-0.2,0.4-0.5,0.7-0.8,1
		c-0.4,0.7-1.1,1.2-1.8,1.5c-0.4,0.4-0.9,0.7-1.5,0.9c-0.6,0.4-1.2,0.7-1.9,0.8c-0.3,0.1-0.7,0.2-1.1,0.2c-0.5,0.1-1,0.2-1.5,0.2
		c-0.1,0-0.1,0-0.2,0c-0.1,0-0.2,0-0.3,0c-0.2,0-0.3,0-0.5,0c-0.1,0-0.2,0-0.3,0c-0.6,0-1.1-0.1-1.6-0.2c-1.2,0-2.1-0.4-2.9-1
		c-0.8-0.2-1.5-0.7-2-1.3c-0.8-0.4-1.5-1-1.9-1.8c-0.3-0.3-0.5-0.6-0.7-1c-0.4-0.4-0.7-1-0.9-1.5C21.2,23.3,21,23,21,22.5
		c-0.3-0.6-0.5-1.2-0.5-1.8c-0.2-0.8-0.3-1.6-0.2-2.5c0-0.7,0.1-1.4,0.3-2.1c0.1-0.2,0.1-0.5,0.2-0.7c0.1-0.5,0.3-1.1,0.5-1.5
		c0.2-0.7,0.6-1.4,1.2-1.9c0.3-0.6,0.7-1.2,1.3-1.6c0.3-0.3,0.6-0.6,0.9-0.8c0.5-0.5,1.1-0.9,1.7-1.1c0.2-0.1,0.4-0.2,0.6-0.3
		c0.6-0.4,1.4-0.7,2.3-0.8c0.4-0.1,0.8-0.2,1.2-0.3c1-0.3,2.2-0.3,3.2,0l0,0c0.8,0,1.6,0.2,2.4,0.6C37.2,7.9,38,8.4,38.6,9
		c0.7,0.3,1.3,0.7,1.7,1.3c0.6,0.5,1.1,1.1,1.4,1.8c0.1,0.1,0.2,0.3,0.3,0.5c0.7,0.7,1.1,1.7,1.3,2.6c0.1,0.2,0.2,0.5,0.2,0.7
		c0.3,0.8,0.4,1.7,0.3,2.6c0,0.3,0,0.7,0,1C43.7,19.7,43.7,19.7,43.7,19.8z"/>
	<path class="st0" d="M32,5.4c-7.4,0-13.4,6-13.4,13.4s6,13.4,13.4,13.4s13.4-6,13.4-13.4S39.4,5.4,32,5.4z M36.4,29.8
		C36.2,29.9,36,30,35.7,30c-1.2,0.4-2.5,0.6-3.7,0.6c-1,0-1.9-0.1-2.8-0.4c-0.7-0.1-1.3-0.3-1.9-0.6c-1.4-0.6-2.7-1.5-3.8-2.7l0,0
		c-1.9-2-3-4.5-3.2-7.2c0-0.3,0-0.5,0-0.8c0-0.1,0-0.1,0-0.2c0-0.4,0-0.7,0.1-1.1c0-0.3,0.1-0.7,0.1-1c0.1-0.7,0.3-1.4,0.6-2
		c0.1-0.2,0.2-0.4,0.2-0.6c0-0.1,0.1-0.2,0.1-0.3c0.2-0.4,0.4-0.8,0.7-1.2c0.3-0.4,0.5-0.8,0.9-1.2l0,0l0,0c0.2-0.3,0.5-0.6,0.8-0.9
		c0.1-0.1,0.1-0.2,0.2-0.2c0.2-0.2,0.3-0.3,0.5-0.5c0.1-0.1,0.2-0.1,0.2-0.2c0.4-0.4,0.9-0.8,1.5-1C26.6,8.3,27,8,27.5,7.8
		c0.2-0.1,0.5-0.2,0.8-0.3C29,7.3,29.9,7.1,30.8,7c0.4,0,0.8-0.1,1.2-0.1s0.8,0,1.2,0.1c0.4,0,0.8,0.1,1.2,0.2s0.7,0.1,1,0.3
		c0.4,0.1,0.7,0.2,1.1,0.4C37,8,37.5,8.3,38,8.6s0.9,0.6,1.3,0.9c0.3,0.2,0.7,0.5,0.9,0.8c0.1,0.1,0.1,0.1,0.2,0.2
		c0.3,0.3,0.6,0.6,0.8,0.9c1.3,1.6,2.2,3.6,2.5,5.6c0,0.2,0.1,0.4,0.1,0.6c0,0.4,0.1,0.8,0.1,1.2C43.8,23.8,40.8,28,36.4,29.8z"/>
</g>
</svg>
